# AST/ASF file generated using VICON BodyLanguage
# -----------------------------------------------
:version 1.10
:name VICON
:units
  mass 1.0
  length 0.45
  angle deg
:documentation
   .ast/.asf automatically generated from VICON data using
   VICON BodyBuilder and BodyLanguage model FoxedUp or BRILLIANT.MOD
:root
   order TX TY TZ RX RY RZ
   axis XYZ
   position 0 0 0  
   orientation 0 0 0 
:bonedata
  begin
     id 1 
     name lhipjoint
     direction 0.543289 -0.788407 0.288535 
     length 2.57127 
     axis 0 0 0  XYZ
  end
  begin
     id 2 
     name lfemur
     direction 0.34202 -0.939693 0  
     length 8.47298  
     axis 0 0 20  XYZ
    dof rx ry rz
    limits (-160.0 20.0)
           (-70.0 70.0)
           (-60.0 70.0)
  end
  begin
     id 3 
     name ltibia
     direction 0.34202 -0.939693 0   
     length 8.13367   
     axis 0 0 20   XYZ
    dof rx
    limits (-10.0 170.0)
  end
  begin
     id 4 
     name lfoot
     direction 0.114037 -0.313314 0.942778   
     length 2.67113   
     axis -90 7.62852e-016 20   XYZ
    dof rx rz
    limits (-45.0 90.0)
           (-70.0 20.0)
  end
  begin
     id 5 
     name ltoes
     direction 1.536e-011 -4.21847e-011 1   
     length 1.32217   
     axis -90 7.62852e-016 20   XYZ
    dof rx
    limits (-90.0 20.0)
  end
  begin
     id 6 
     name rhipjoint
     direction -0.571293 -0.770752 0.282074   
     length 2.63017  
     axis 0 0 0  XYZ 
  end
  begin
     id 7 
     name rfemur
     direction -0.34202 -0.939693 0   
     length 8.60885   
     axis 0 0 -20   XYZ
    dof rx ry rz
    limits (-160.0 20.0)
           (-70.0 70.0)
           (-70.0 60.0)
  end
  begin
     id 8 
     name rtibia
     direction -0.34202 -0.939693 0   
     length 8.07673   
     axis 0 0 -20   XYZ
    dof rx
    limits (-10.0 170.0)
 end
 begin
     id 9 
     name rfoot
     direction -0.121336 -0.333368 0.934956   
     length 2.81602  
     axis -90 -7.62852e-016 -20   XYZ
    dof rx rz
    limits (-45.0 90.0)
           (-20.0 70.0)
  end
  begin
     id 10 
     name rtoes
     direction -1.53491e-011 -4.21808e-011 1   
     length 1.38905   
     axis -90 -7.62852e-016 -20   XYZ
    dof rx
    limits (-90.0 20.0)
  end
  begin
     id 11 
     name lowerback
     direction 0.0136776 0.999869 -0.00861835   
     length 2.14087   
     axis 0 0 0   XYZ
    dof rx ry rz
    limits (-20.0 45.0)
           (-30.0 30.0)
           (-30.0 30.0)
  end
  begin
     id 12 
     name upperback
     direction -0.00789158 0.999804 0.0181308   
     length 2.14151   
     axis 0 0 0   XYZ
    dof rx ry rz
    limits (-20.0 45.0)
           (-30.0 30.0)
           (-30.0 30.0)
  end
  begin
     id 13 
     name thorax
     direction -0.0135231 0.999666 0.0220247   
     length 2.13644   
     axis 0 0 0   XYZ
    dof rx ry rz
    limits (-20.0 45.0)
           (-30.0 30.0)
           (-30.0 30.0)
  end
  begin
     id 14 
     name lowerneck
     direction -0.0392259 0.997317 0.0618018   
     length 1.65045   
     axis 0 0 0   XYZ
    dof rx ry rz
    limits (-20.0 45.0)
           (-30.0 30.0)
           (-30.0 30.0)
  end
  begin
     id 15 
     name upperneck
     direction 0.0765547 0.994276 -0.0745319   
     length 1.66045   
     axis 0 0 0   XYZ
    dof rx ry rz
    limits (-20.0 45.0)
           (-30.0 30.0)
           (-30.0 30.0)
  end
  begin
     id 16
     name head
     direction 0.0241564 0.999031 -0.036785  
     length 1.66594  
     axis 0 0 0   XYZ
    dof rx ry rz
    limits (-20.0 45.0)
           (-30.0 30.0)
           (-30.0 30.0)
  end
  begin
     id 17 
     name lclavicle
     direction 0.967398 0.249018 0.0461573  
     length 3.75176  
     axis 0 0 0   XYZ
    dof ry rz
    limits (-20.0 10.0)
           (0.0 20.0)
  end
  begin
     id 18 
     name lhumerus
     direction 1 -4.48963e-011 -3.05005e-027   
     length 5.93342   
     axis 180 -30 -90   XYZ
    dof rx ry rz
    limits (-60.0 90.0)
           (-90.0 90.0)
           (-90.0 90.0)
  end
  begin
     id 19
     name lradius
     direction 1 -4.48957e-011 1.07006e-026   
     length 3.94763   
     axis 180 -30 -90   XYZ
    dof rx
    limits (-10.0 170.0)
  end
  begin
     id 20
     name lwrist
     direction 1 -4.48978e-011 1.92422e-026   
     length 1.97382   
     axis -1.18182e-014 90 90   XYZ
    dof ry
    limits (-180.0 0.0)
 end
  begin
     id 21 
     name lhand
     direction 1 -4.48931e-011 3.84844e-026   
     length 0.560187   
     axis -2.45563e-014 90 90   XYZ
    dof rx rz
    limits (-90.0 90.0)
           (-45.0 45.0)
  end
  begin
     id 22 
     name lfingers
     direction 1 -4.48952e-011 7.69687e-026   
     length 0.451637   
     axis -4.91126e-014 90 90   XYZ
    dof rx
    limits (0.0 90.0)
  end
  begin
     id 23
     name lthumb
     direction 0.707107 -6.34901e-011 0.707107   
     length 0.648463   
     axis -90 45 2.85299e-015   XYZ
    dof rx rz
    limits (-45.0 45.0)
           (-45.0 45.0)
  end
  begin
     id 24 
     name rclavicle
     direction -0.965946 0.258716 0.00371831   
     length 3.63667  
     axis 0 0 0   XYZ 
    dof ry rz
    limits (-10.0 20.0)
           (-20.0 0.0)
  end
  begin
     id 25 
     name rhumerus
     direction -1 -4.48966e-011 -1.78361e-028  
     length 6.28647   
     axis 180 30 90   XYZ
    dof rx ry rz
    limits (-90.0 60.0)
           (-90.0 90.0)
           (-90.0 90.0)
  end
  begin
     id 26 
     name rradius
     direction -1 -4.48961e-011 1.05248e-026   
     length 3.81645   
     axis 180 30 90   XYZ
    dof rx
    limits (-10.0 170.0)
  end
  begin
     id 27 
     name rwrist
     direction -1 -4.48979e-011 1.92422e-026   
     length 1.90822   
     axis -1.18182e-014 -90 -90   XYZ
    dof ry
    limits (-180.0 0.0)
  end
  begin
     id 28
     name rhand
     direction -1 -4.48937e-011 3.84844e-026   
     length 0.646185   
     axis -2.45563e-014 -90 -90   XYZ
    dof rx rz
    limits (-90.0 90.0)
           (-45.0 45.0)
  end
  begin
     id 29
     name rfingers
     direction -1 -4.48953e-011 7.69687e-026   
     length 0.520971   
     axis -4.91126e-014 -90 -90   XYZ
    dof rx
    limits (0.0 90.0)
  end
  begin
     id 30
     name rthumb
     direction -0.707107 -6.3494e-011 0.707107   
     length 0.748013   
     axis -90 -45 -2.85299e-015   XYZ
    dof rx rz
    limits (-45.0 45.0)
           (-45.0 45.0)
  end
:hierarchy
  begin
    root lhipjoint rhipjoint lowerback
    lhipjoint lfemur
    lfemur ltibia
    ltibia lfoot
    lfoot ltoes
    rhipjoint rfemur
    rfemur rtibia
    rtibia rfoot
    rfoot rtoes
    lowerback upperback
    upperback thorax
    thorax lowerneck lclavicle rclavicle
    lowerneck upperneck
    upperneck head
    lclavicle lhumerus
    lhumerus lradius
    lradius lwrist
    lwrist lhand lthumb
    lhand lfingers
    rclavicle rhumerus
    rhumerus rradius
    rradius rwrist
    rwrist rhand rthumb
    rhand rfingers
  end

#!OML:ASF H:\HAZMAT1\Patient Classification 1\Patient 3\Session 1\dancer.ASF
:FULLY-SPECIFIED
:DEGREES
74
upperback 9.148610 1.513720 -0.163226
rfoot -44.766399 19.836399
lradius 23.697500
lthumb -16.198200 67.279404
rradius 23.608900
lwrist -28.057699
rhand -46.507900 -27.733000
rhumerus 53.025600 -10.576800 -51.740398
lowerneck -0.110412 -4.417070 5.331190
lhand -43.352901 37.936100
ltibia 152.634003
head 1.295090 -2.856830 -1.025480
rwrist 13.286100
lfingers 7.125020
rtoes -37.642700
lowerback 20.537901 1.448330 1.274290
rfingers 7.125020
lclavicle -0.000000 -0.000000
upperneck 4.656740 -5.929720 -0.251221
rfemur -113.318001 -43.449299 35.594101
thorax -1.535400 0.566368 -1.210540
rclavicle -0.000000 -0.000000
rtibia 155.453995
lfoot -25.944201 -13.276600
lhumerus 65.230698 -7.959660 60.047001
rthumb -19.234200 -56.801800
root -13.033300 8.711830 13.861300 -189.783997 -95.473000 240.248993
ltoes -19.801300
lfemur -135.688004 4.682090 -33.898899
75
upperback 11.417300 -1.423630 -4.955820
rfoot -35.447800 5.177810
lradius 47.203400
lthumb -20.395000 77.592903
rradius 47.238899
lwrist -16.107901
rhand -52.430801 -36.981499
rhumerus 49.334099 -9.968980 -51.966801
lowerneck 0.511607 -0.371608 4.666370
lhand -47.715500 48.643902
ltibia 147.968002
head 10.023400 -0.863222 -0.569770
rwrist 15.903500
lfingers 7.125020
rtoes -31.418400
lowerback 17.787600 -1.506500 9.850080
rfingers 7.125020
lclavicle -0.000000 -0.000000
upperneck 31.826200 -2.861860 1.447630
rfemur -93.184303 -14.755900 22.776899
thorax 2.245050 -0.261097 -10.830300
rclavicle -0.000000 -0.000000
rtibia 142.703995
lfoot -23.129900 -14.339500
lhumerus 51.421700 0.545596 45.937099
rthumb -24.920300 -65.376801
root -16.935400 9.303920 13.829700 -250.322006 -91.851402 313.727997
ltoes -18.082001
lfemur -120.597000 12.893200 -30.571699
76
upperback 11.613400 -1.738050 -6.568500
rfoot -36.920898 5.909140
lradius 55.375500
lthumb -23.160700 -96.386002
rradius 58.856701
lwrist -16.978600
rhand -58.005600 -48.742001
rhumerus 42.012501 -1.627180 -59.424000
lowerneck -0.120023 1.882710 4.703240
lhand -50.595600 67.758301
ltibia 137.272995
head 10.708500 0.332647 -0.113437
rwrist 22.476200
lfingers 7.125020
rtoes -32.439999
lowerback 13.513500 -1.426750 9.617240
rfingers 7.125020
lclavicle 0.000000 0.000000
upperneck 33.150200 -0.360235 2.204590
rfemur -82.156197 -2.232890 14.791600
thorax 4.630160 -0.203416 -12.573900
rclavicle 0.000000 0.000000
rtibia 122.557999
lfoot -22.741400 -7.635600
lhumerus 34.839802 -0.668133 45.434299
rthumb -30.251200 -76.283501
root -19.862400 9.945270 13.785700 -306.273010 -96.888496 379.010986
ltoes -14.491000
lfemur -107.280998 9.074350 -27.006800
77
upperback 11.360800 -3.743020 -5.674070
rfoot -38.132099 10.233900
lradius 62.918598
lthumb -23.510201 -104.184998
rradius 60.948898
lwrist -22.881201
rhand -60.079399 -60.506500
rhumerus 38.694801 4.064580 -62.322601
lowerneck 0.179380 2.959730 4.313540
lhand -50.959999 75.601501
ltibia 130.326004
head 9.923540 0.960664 0.130666
rwrist 25.670500
lfingers 7.125020
rtoes -32.990398
lowerback 10.279800 -2.937250 11.393900
rfingers 7.125020
lclavicle -0.000000 -0.000000
upperneck 31.236799 1.254300 2.378200
rfemur -74.195198 0.605378 12.301400
thorax 5.522080 -1.030600 -12.487100
rclavicle -0.000000 -0.000000
rtibia 107.334000
lfoot -22.192200 -4.462730
lhumerus 22.235701 -0.140451 48.061001
rthumb -32.227402 -87.666603
root -21.594801 10.039000 13.945000 -308.653015 -95.563499 386.792999
ltoes -12.541000
lfemur -101.789001 5.377520 -25.175301
78
upperback 9.413530 -3.860400 -3.581170
rfoot -32.472900 -8.311150
lradius 78.593803
lthumb -20.497601 80.126602
rradius 60.736198
lwrist -28.690701
rhand -59.670601 -72.032303
rhumerus 34.856998 6.252480 -63.371498
lowerneck 0.931162 3.271400 2.643140
lhand -47.822201 51.188599
ltibia 122.697998
head 8.488640 1.145690 0.744186
rwrist 28.166800
lfingers 7.125020
rtoes -22.452801
lowerback 7.202230 -3.028660 13.127600
rfingers 7.125020
lclavicle -0.000000 -0.000000
upperneck 27.795200 1.983670 3.300760
rfemur -45.993801 4.738420 11.486900
thorax 5.057250 -1.123770 -11.171500
rclavicle -0.000000 -0.000000
rtibia 85.710197
lfoot -21.025299 -3.388220
lhumerus 20.015301 9.306350 46.894901
rthumb -31.838200 99.270500
root -22.979200 10.165400 14.479500 -341.907013 -95.545998 427.692993
ltoes -6.244770
lfemur -101.431999 5.185580 -24.342300
79
upperback 4.378630 -1.689280 -1.307150
rfoot -22.563601 -23.498501
lradius 70.836197
lthumb -24.626801 -96.937202
rradius 60.766899
lwrist -23.925200
rhand -59.564301 -71.351997
rhumerus 29.002800 9.795790 -62.913101
lowerneck 4.004550 3.626350 -0.661846
lhand -52.124401 68.501602
ltibia 119.434998
head 6.588220 1.216380 1.529790
rwrist 29.739500
lfingers 7.125020
rtoes -11.319200
lowerback 0.023030 -0.943076 16.699699
rfingers 7.125020
lclavicle 0.000000 0.000000
upperneck 24.052500 2.779050 4.145920
rfemur 10.119600 -6.940700 3.957250
thorax 4.251210 -0.211411 -10.898300
rclavicle 0.000000 0.000000
rtibia 55.739799
lfoot -20.684401 -0.653025
lhumerus 15.397700 3.840610 48.841400
rthumb -31.736900 98.610298
root -23.520201 10.204600 15.042800 -356.411987 -100.357002 450.878998
ltoes -6.877570
lfemur -107.699997 6.475740 -23.926201
80
upperback 0.623548 2.328690 -2.891410
rfoot -16.375500 -21.375999
lradius 67.132004
lthumb -24.180901 -99.900497
rradius 58.075600
lwrist -20.697100
rhand -60.224499 -76.099899
rhumerus 27.139601 11.904000 -66.516197
lowerneck 5.002730 3.881510 -0.471856
lhand -51.659401 71.404800
ltibia 117.111000
head 5.897710 1.294430 2.424500
rwrist 31.002600
lfingers 7.125020
rtoes -8.887760
lowerback -5.910260 2.718540 19.208599
rfingers 7.125020
lclavicle 0.000000 0.000000
upperneck 22.599400 2.634100 7.193630
rfemur 25.869900 -8.502440 5.064200
thorax 4.974570 1.728890 -13.906800
rclavicle 0.000000 0.000000
rtibia 61.842800
lfoot -16.455299 -7.833030
lhumerus 14.687800 0.331793 44.037601
rthumb -32.365501 103.232002
root -23.478201 10.420700 15.074700 -348.623993 -107.023003 450.420013
ltoes -7.391070
lfemur -115.054001 12.697000 -23.698200
81
upperback 2.949010 4.019790 -8.414640
rfoot -7.591730 -19.027399
lradius 70.989899
lthumb -23.022100 -92.492203
rradius 54.058498
lwrist -27.258801
rhand -60.890999 -83.603996
rhumerus 33.461498 11.404200 -67.710197
lowerneck 4.493040 2.712590 0.255037
lhand -50.451302 63.847198
ltibia 120.174004
head 4.191930 0.711493 4.076910
rwrist 32.527901
lfingers 7.125020
rtoes -5.025580
lowerback -0.350215 3.085920 8.148600
rfingers 7.125020
lclavicle 0.000000 0.000000
upperneck 16.867500 0.912363 13.283700
rfemur 3.417260 -28.383101 8.387030
thorax 4.567910 2.439000 -13.652300
rclavicle 0.000000 0.000000
rtibia 74.234596
lfoot -13.309300 -11.986900
lhumerus 15.629800 7.356410 45.708698
rthumb -32.999599 110.603996
root -23.908501 10.487500 15.262700 -320.226013 -118.031998 418.256012
ltoes -0.063963
lfemur -104.276001 21.707001 -12.575300
82
upperback 4.369310 4.687630 -8.261460
rfoot 13.555100 -0.394175
lradius 56.087700
lthumb -26.020700 -277.209991
rradius 37.168701
lwrist -33.263802
rhand -49.933701 -31.666700
rhumerus 64.636597 25.026600 -36.907200
lowerneck 5.994520 3.913000 -2.518400
lhand -53.579399 54.552101
ltibia 129.453995
head 2.772840 1.245090 4.537780
rwrist 15.973800
lfingers 7.125020
rtoes -4.900900
lowerback 4.789870 3.863940 0.416132
rfingers 7.125020
lclavicle 0.000000 0.000000
upperneck 13.674800 2.782020 13.505300
rfemur -26.464600 -44.066002 24.367500
thorax 2.621320 2.327830 -9.056740
rclavicle 0.000000 0.000000
rtibia 78.407204
lfoot -14.055100 -7.935690
lhumerus 11.399400 19.065500 47.480202
rthumb -22.525400 299.627014
root -23.406401 10.927300 16.893801 -324.410004 -141.054993 414.036987
ltoes 13.809800
lfemur -79.249298 37.550999 18.287399
83
upperback 3.035600 2.973870 -8.645800
rfoot 9.966740 2.121540
lradius 17.391600
lthumb -16.845501 -632.536011
rradius 61.559299
lwrist -43.751499
rhand -30.522301 -11.460600
rhumerus 81.697899 -1.767390 -32.402901
lowerneck 1.088730 2.209900 0.177091
lhand -44.025200 58.174500
ltibia 130.723999
head 7.149360 3.615020 4.410200
rwrist -2.838980
lfingers 7.125020
rtoes -9.248810
lowerback 2.339780 1.565620 -0.129657
rfingers 7.125020
lclavicle 0.000000 -0.000000
upperneck 24.798700 3.293310 12.527100
rfemur -34.947300 -44.677101 22.002800
thorax 2.311340 1.901000 -9.027290
rclavicle 0.000000 -0.000000
rtibia 93.024399
lfoot -12.131400 -17.186701
lhumerus -11.896700 41.921700 22.884100
rthumb -3.821870 318.593994
root -22.712000 11.367400 18.379601 -331.466003 -179.964005 408.596985
ltoes 10.539700
lfemur -35.723999 36.226799 47.016998
84
upperback -0.441575 -1.303070 -5.707850
rfoot -15.015100 -1.875040
lradius 19.954901
lthumb 5.300040 -642.533020
rradius 61.546200
lwrist -9.917570
rhand -32.503899 -13.238900
rhumerus 67.419197 -42.648399 -34.791100
lowerneck -4.027940 -1.056140 -1.521600
lhand -21.077000 47.553600
ltibia 122.143997
head 11.498600 1.102460 4.168140
rwrist -14.174000
lfingers 7.125020
rtoes -25.710400
lowerback -3.779220 -1.104780 2.561140
rfingers 7.125020
lclavicle 0.000000 -0.000000
upperneck 33.047901 -1.837950 10.401900
rfemur -44.267101 -43.661598 8.003610
thorax 1.471260 -0.551813 -7.465280
rclavicle 0.000000 -0.000000
rtibia 104.612000
lfoot -11.565500 -18.904200
lhumerus -78.216202 60.086201 -52.657398
rthumb -5.735300 316.859009
root -22.272499 11.380800 18.878901 -332.579010 -217.214005 397.338013
ltoes 13.087200
lfemur -11.452800 19.185801 39.006401
85
upperback -2.783620 -4.291410 2.979040
rfoot -21.631001 5.572970
lradius 21.259800
lthumb -0.772296 -646.931030
rradius 55.210400
lwrist -0.619793
rhand -38.480801 -25.826099
rhumerus 32.055801 -63.261200 -23.236300
lowerneck -8.544940 -2.840120 -4.048740
lhand -27.364700 43.091099
ltibia 108.408997
head 10.935800 -1.020730 1.118630
rwrist -30.801300
lfingers 7.125020
rtoes -12.245700
lowerback -2.232200 -3.304210 8.398140
rfingers 7.125020
lclavicle 0.000000 0.000000
upperneck 29.340599 -2.647210 1.788270
rfemur -64.874802 -47.252399 7.356780
thorax -2.035550 -2.205810 -1.606150
rclavicle 0.000000 0.000000
rtibia 105.980003
lfoot -7.133580 -34.984699
lhumerus -75.844002 76.103500 -78.724503
rthumb -11.502900 304.509003
root -21.986500 11.475200 18.991400 -332.588013 -238.451004 386.386993
ltoes 1.269420
lfemur -4.126500 15.490200 17.435400
86
upperback -2.071050 -4.849660 8.337940
rfoot -16.173300 5.350980
lradius 27.844000
lthumb -2.714660 -656.387024
rradius 36.652100
lwrist -10.426300
rhand -39.912701 -31.542000
rhumerus 7.263990 -57.576401 -23.049801
lowerneck -12.131400 -1.784480 -4.137990
lhand -29.375799 33.650501
ltibia 114.611000
head 7.286820 -0.903711 0.458402
rwrist -26.329700
lfingers 7.125020
rtoes -3.966980
lowerback 2.276490 -4.417570 9.478050
rfingers 7.125020
lclavicle -0.000000 -0.000000
upperneck 17.114700 -1.406140 -0.291242
rfemur -99.180901 -42.982800 15.050000
thorax -3.543160 -2.357390 3.697020
rclavicle -0.000000 -0.000000
rtibia 106.571999
lfoot -7.759510 -31.884100
lhumerus 56.356899 59.359600 35.030201
rthumb -12.883600 298.876007
root -22.364599 11.277200 19.034599 -335.591003 -251.544006 365.921997
ltoes 5.830210
lfemur -20.633801 30.905100 -3.614400
87
upperback 1.365690 -5.250820 8.084360
rfoot -11.971100 3.036100
lradius 18.683100
lthumb 8.844450 -663.643982
rradius 23.850500
lwrist -20.298300
rhand -31.545900 -32.055801
rhumerus 20.585800 -21.554899 -56.428001
lowerneck -10.529500 0.490790 -3.810460
lhand -17.405100 26.561100
ltibia 119.646004
head 2.697900 0.598744 2.280410
rwrist 0.697001
lfingers 7.125020
rtoes 0.219087
lowerback 5.671530 -4.819910 10.230800
rfingers 7.125020
lclavicle 0.000000 -0.000000
upperneck 2.698230 0.922333 4.720930
rfemur -126.655998 -33.079601 22.249001
thorax -1.925080 -2.494410 3.144510
rclavicle 0.000000 -0.000000
rtibia 106.760002
lfoot -14.756900 -24.975599
lhumerus 68.344704 19.756800 60.151402
rthumb -4.810240 298.019012
root -22.475500 10.897500 19.377001 -332.971985 -261.066010 351.687988
ltoes -1.166260
lfemur -40.709702 29.303801 -10.000500
